<svg width="19" height="18" viewBox="0 0 19 18" fill="none" xmlns="http://www.w3.org/2000/svg">
<path d="M5.38171 1.875L3.13171 4.875V15.375C3.13171 15.7728 3.28975 16.1544 3.57105 16.4357C3.85236 16.717 4.23389 16.875 4.63171 16.875H15.1317C15.5295 16.875 15.9111 16.717 16.1924 16.4357C16.4737 16.1544 16.6317 15.7728 16.6317 15.375V4.875L14.3817 1.875H5.38171Z" stroke="#1A95BD" stroke-width="1.5" stroke-linecap="round" stroke-linejoin="round"/>
<path d="M3.13171 4.5H16.6317" stroke="#1A95BD" stroke-width="1.5" stroke-linecap="round" stroke-linejoin="round"/>
<path d="M12.8817 7.875C12.8817 8.67065 12.5656 9.43371 12.003 9.99632C11.4404 10.5589 10.6774 10.875 9.88171 10.875C9.08606 10.875 8.323 10.5589 7.76039 9.99632C7.19778 9.43371 6.88171 8.67065 6.88171 7.875" stroke="#1A95BD" stroke-width="1.5" stroke-linecap="round" stroke-linejoin="round"/>
</svg>
