<svg width="13" height="12" viewBox="0 0 13 12" fill="none" xmlns="http://www.w3.org/2000/svg">
<path d="M11.7113 4.14544L8.48465 3.86544L7.22465 0.898774C6.99798 0.358774 6.22465 0.358774 5.99798 0.898774L4.73798 3.87211L1.51798 4.14544C0.931316 4.19211 0.691315 4.92544 1.13798 5.31211L3.58465 7.43211L2.85132 10.5788C2.71798 11.1521 3.33798 11.6054 3.84465 11.2988L6.61132 9.63211L9.37798 11.3054C9.88465 11.6121 10.5046 11.1588 10.3713 10.5854L9.63798 7.43211L12.0846 5.31211C12.5313 4.92544 12.298 4.19211 11.7113 4.14544ZM6.61132 8.38544V2.18544L7.75132 4.87877L10.6713 5.13211L8.45798 7.05211L9.12465 9.90544L6.61132 8.38544Z" fill="#FFD701"/>
</svg>
