<svg width="21" height="21" viewBox="0 0 21 21" fill="none" xmlns="http://www.w3.org/2000/svg">
<path d="M6.91599 10.2055C6.91599 8.34575 8.38334 6.83774 10.1939 6.83774C12.0045 6.83774 13.4726 8.34575 13.4726 10.2055C13.4726 12.0652 12.0045 13.5733 10.1939 13.5733C8.38334 13.5733 6.91599 12.0652 6.91599 10.2055ZM5.14358 10.2055C5.14358 13.0706 7.40461 15.393 10.1939 15.393C12.9832 15.393 15.2442 13.0706 15.2442 10.2055C15.2442 7.34043 12.9832 5.018 10.1939 5.018C7.40461 5.018 5.14358 7.34043 5.14358 10.2055ZM14.2639 4.81231C14.2638 5.05208 14.333 5.28649 14.4626 5.48591C14.5922 5.68532 14.7764 5.84078 14.9921 5.93263C15.2077 6.02447 15.445 6.04858 15.6739 6.00189C15.9029 5.95521 16.1133 5.83984 16.2784 5.67036C16.4435 5.50089 16.556 5.28492 16.6016 5.04978C16.6473 4.81464 16.624 4.57087 16.5347 4.34932C16.4455 4.12776 16.2943 3.93837 16.1003 3.80508C15.9062 3.67179 15.6781 3.6006 15.4446 3.6005H15.4442C15.1313 3.60065 14.8312 3.72836 14.6099 3.95557C14.3886 4.18278 14.2642 4.49092 14.2639 4.81231ZM6.22043 18.4287C5.26153 18.3838 4.74034 18.2197 4.39398 18.0811C3.93478 17.8975 3.60715 17.6788 3.26268 17.3255C2.9182 16.9721 2.70497 16.6359 2.52699 16.1643C2.39198 15.8086 2.23225 15.2731 2.18866 14.2882C2.14098 13.2233 2.13146 12.9034 2.13146 10.2056C2.13146 7.50773 2.14176 7.18874 2.18866 6.12297C2.23233 5.13802 2.39323 4.60355 2.52699 4.2469C2.70576 3.77523 2.91868 3.4387 3.26268 3.08487C3.60668 2.73104 3.934 2.51202 4.39398 2.32921C4.74018 2.19052 5.26153 2.02646 6.22043 1.98168C7.25716 1.93271 7.56858 1.92293 10.1939 1.92293C12.8192 1.92293 13.131 1.93351 14.1686 1.98168C15.1275 2.02654 15.6478 2.19181 15.995 2.32921C16.4542 2.51202 16.7818 2.73153 17.1263 3.08487C17.4708 3.43822 17.6832 3.77523 17.862 4.2469C17.997 4.6025 18.1567 5.13802 18.2003 6.12297C18.248 7.18874 18.2575 7.50773 18.2575 10.2056C18.2575 12.9034 18.248 13.2224 18.2003 14.2882C18.1567 15.2731 17.9961 15.8085 17.862 16.1643C17.6832 16.6359 17.4703 16.9724 17.1263 17.3255C16.7823 17.6785 16.4542 17.8975 15.995 18.0811C15.6488 18.2198 15.1275 18.3839 14.1686 18.4287C13.1318 18.4776 12.8204 18.4874 10.1939 18.4874C7.5674 18.4874 7.25684 18.4776 6.22043 18.4287ZM6.139 0.164208C5.09197 0.213185 4.37651 0.383714 3.75169 0.633447C3.1046 0.891343 2.55682 1.23733 2.00942 1.79871C1.46203 2.36008 1.12605 2.92364 0.874975 3.5883C0.631846 4.23049 0.465826 4.96498 0.418144 6.04045C0.369676 7.11761 0.358582 7.46199 0.358582 10.2055C0.358582 12.949 0.369676 13.2934 0.418144 14.3705C0.465826 15.4461 0.631846 16.1805 0.874975 16.8227C1.12605 17.4869 1.4621 18.0511 2.00942 18.6123C2.55674 19.1734 3.1046 19.5189 3.75169 19.7775C4.37769 20.0273 5.09197 20.1978 6.139 20.2468C7.18823 20.2958 7.52295 20.308 10.1939 20.308C12.8649 20.308 13.2001 20.2966 14.2488 20.2468C15.2959 20.1978 16.0109 20.0273 16.6361 19.7775C17.2828 19.5189 17.831 19.1737 18.3784 18.6123C18.9258 18.0509 19.261 17.4869 19.5128 16.8227C19.756 16.1805 19.9228 15.446 19.9697 14.3705C20.0173 13.2926 20.0284 12.949 20.0284 10.2055C20.0284 7.46199 20.0173 7.11761 19.9697 6.04045C19.922 4.9649 19.756 4.23009 19.5128 3.5883C19.261 2.92404 18.9249 2.36097 18.3784 1.79871C17.8319 1.23644 17.2828 0.891343 16.6369 0.633447C16.0109 0.383714 15.2958 0.212376 14.2496 0.164208C13.2009 0.115231 12.8657 0.103027 10.1947 0.103027C7.52373 0.103027 7.18823 0.114423 6.139 0.164208Z" fill="url(#paint0_radial_171_4544)"/>
<path d="M6.91599 10.2055C6.91599 8.34575 8.38334 6.83774 10.1939 6.83774C12.0045 6.83774 13.4726 8.34575 13.4726 10.2055C13.4726 12.0652 12.0045 13.5733 10.1939 13.5733C8.38334 13.5733 6.91599 12.0652 6.91599 10.2055ZM5.14358 10.2055C5.14358 13.0706 7.40461 15.393 10.1939 15.393C12.9832 15.393 15.2442 13.0706 15.2442 10.2055C15.2442 7.34043 12.9832 5.018 10.1939 5.018C7.40461 5.018 5.14358 7.34043 5.14358 10.2055ZM14.2639 4.81231C14.2638 5.05208 14.333 5.28649 14.4626 5.48591C14.5922 5.68532 14.7764 5.84078 14.9921 5.93263C15.2077 6.02447 15.445 6.04858 15.6739 6.00189C15.9029 5.95521 16.1133 5.83984 16.2784 5.67036C16.4435 5.50089 16.556 5.28492 16.6016 5.04978C16.6473 4.81464 16.624 4.57087 16.5347 4.34932C16.4455 4.12776 16.2943 3.93837 16.1003 3.80508C15.9062 3.67179 15.6781 3.6006 15.4446 3.6005H15.4442C15.1313 3.60065 14.8312 3.72836 14.6099 3.95557C14.3886 4.18278 14.2642 4.49092 14.2639 4.81231ZM6.22043 18.4287C5.26153 18.3838 4.74034 18.2197 4.39398 18.0811C3.93478 17.8975 3.60715 17.6788 3.26268 17.3255C2.9182 16.9721 2.70497 16.6359 2.52699 16.1643C2.39198 15.8086 2.23225 15.2731 2.18866 14.2882C2.14098 13.2233 2.13146 12.9034 2.13146 10.2056C2.13146 7.50773 2.14176 7.18874 2.18866 6.12297C2.23233 5.13802 2.39323 4.60355 2.52699 4.2469C2.70576 3.77523 2.91868 3.4387 3.26268 3.08487C3.60668 2.73104 3.934 2.51202 4.39398 2.32921C4.74018 2.19052 5.26153 2.02646 6.22043 1.98168C7.25716 1.93271 7.56858 1.92293 10.1939 1.92293C12.8192 1.92293 13.131 1.93351 14.1686 1.98168C15.1275 2.02654 15.6478 2.19181 15.995 2.32921C16.4542 2.51202 16.7818 2.73153 17.1263 3.08487C17.4708 3.43822 17.6832 3.77523 17.862 4.2469C17.997 4.6025 18.1567 5.13802 18.2003 6.12297C18.248 7.18874 18.2575 7.50773 18.2575 10.2056C18.2575 12.9034 18.248 13.2224 18.2003 14.2882C18.1567 15.2731 17.9961 15.8085 17.862 16.1643C17.6832 16.6359 17.4703 16.9724 17.1263 17.3255C16.7823 17.6785 16.4542 17.8975 15.995 18.0811C15.6488 18.2198 15.1275 18.3839 14.1686 18.4287C13.1318 18.4776 12.8204 18.4874 10.1939 18.4874C7.5674 18.4874 7.25684 18.4776 6.22043 18.4287ZM6.139 0.164208C5.09197 0.213185 4.37651 0.383714 3.75169 0.633447C3.1046 0.891343 2.55682 1.23733 2.00942 1.79871C1.46203 2.36008 1.12605 2.92364 0.874975 3.5883C0.631846 4.23049 0.465826 4.96498 0.418144 6.04045C0.369676 7.11761 0.358582 7.46199 0.358582 10.2055C0.358582 12.949 0.369676 13.2934 0.418144 14.3705C0.465826 15.4461 0.631846 16.1805 0.874975 16.8227C1.12605 17.4869 1.4621 18.0511 2.00942 18.6123C2.55674 19.1734 3.1046 19.5189 3.75169 19.7775C4.37769 20.0273 5.09197 20.1978 6.139 20.2468C7.18823 20.2958 7.52295 20.308 10.1939 20.308C12.8649 20.308 13.2001 20.2966 14.2488 20.2468C15.2959 20.1978 16.0109 20.0273 16.6361 19.7775C17.2828 19.5189 17.831 19.1737 18.3784 18.6123C18.9258 18.0509 19.261 17.4869 19.5128 16.8227C19.756 16.1805 19.9228 15.446 19.9697 14.3705C20.0173 13.2926 20.0284 12.949 20.0284 10.2055C20.0284 7.46199 20.0173 7.11761 19.9697 6.04045C19.922 4.9649 19.756 4.23009 19.5128 3.5883C19.261 2.92404 18.9249 2.36097 18.3784 1.79871C17.8319 1.23644 17.2828 0.891343 16.6369 0.633447C16.0109 0.383714 15.2958 0.212376 14.2496 0.164208C13.2009 0.115231 12.8657 0.103027 10.1947 0.103027C7.52373 0.103027 7.18823 0.114423 6.139 0.164208Z" fill="url(#paint1_radial_171_4544)"/>
<defs>
<radialGradient id="paint0_radial_171_4544" cx="0" cy="0" r="1" gradientUnits="userSpaceOnUse" gradientTransform="translate(2.97194 20.4034) scale(25.6784 26.3758)">
<stop offset="0.09" stop-color="#FA8F21"/>
<stop offset="0.78" stop-color="#D82D7E"/>
</radialGradient>
<radialGradient id="paint1_radial_171_4544" cx="0" cy="0" r="1" gradientUnits="userSpaceOnUse" gradientTransform="translate(12.288 21.3086) scale(20.2381 20.7878)">
<stop offset="0.64" stop-color="#8C3AAA" stop-opacity="0"/>
<stop offset="1" stop-color="#8C3AAA"/>
</radialGradient>
</defs>
</svg>
