<svg width="20" height="21" viewBox="0 0 20 21" fill="none" xmlns="http://www.w3.org/2000/svg">
<path d="M0.0273743 2.40581C0.0273743 1.62527 0.660417 0.991699 1.44078 0.991699H17.7382C18.5189 0.991699 19.1516 1.62527 19.1516 2.40581V19.319C19.1516 20.0997 18.5189 20.7329 17.7382 20.7329H1.44078C0.660491 20.7329 0.0273743 20.0998 0.0273743 19.3192V2.40558V2.40581Z" fill="#006699"/>
<path d="M5.83889 17.5126V8.62511H2.97712V17.5126H5.83918H5.83889ZM4.4086 7.41188C5.40635 7.41188 6.02751 6.72942 6.02751 5.87654C6.00884 5.00423 5.40635 4.34082 4.42758 4.34082C3.44813 4.34082 2.80844 5.00423 2.80844 5.87647C2.80844 6.72935 3.42938 7.4118 4.38985 7.4118H4.40838L4.4086 7.41188ZM7.42291 17.5126H10.2844V12.55C10.2844 12.2847 10.3031 12.0187 10.3787 11.8293C10.5855 11.2983 11.0564 10.7488 11.8471 10.7488C12.8824 10.7488 13.2967 11.5637 13.2967 12.7586V17.5126H16.1582V12.4168C16.1582 9.68705 14.7466 8.41675 12.8638 8.41675C11.3202 8.41675 10.6423 9.30734 10.2656 9.91392H10.2847V8.62542H7.42306C7.46041 9.45918 7.42284 17.5129 7.42284 17.5129L7.42291 17.5126Z" fill="white"/>
</svg>
