<svg width="22" height="23" viewBox="0 0 22 23" fill="none" xmlns="http://www.w3.org/2000/svg">
<path d="M11 7.5C8.79 7.5 7 9.29 7 11.5C7 13.71 8.79 15.5 11 15.5C13.21 15.5 15 13.71 15 11.5C15 9.29 13.21 7.5 11 7.5ZM19.94 10.5C19.7135 8.47212 18.8042 6.58154 17.3613 5.13869C15.9185 3.69585 14.0279 2.78651 12 2.56V0.5H10V2.56C7.97212 2.78651 6.08154 3.69585 4.63869 5.13869C3.19585 6.58154 2.28651 8.47212 2.06 10.5H0V12.5H2.06C2.28651 14.5279 3.19585 16.4185 4.63869 17.8613C6.08154 19.3042 7.97212 20.2135 10 20.44V22.5H12V20.44C14.0279 20.2135 15.9185 19.3042 17.3613 17.8613C18.8042 16.4185 19.7135 14.5279 19.94 12.5H22V10.5H19.94ZM11 18.5C7.13 18.5 4 15.37 4 11.5C4 7.63 7.13 4.5 11 4.5C14.87 4.5 18 7.63 18 11.5C18 15.37 14.87 18.5 11 18.5Z" fill="#1A95BD"/>
</svg>
