<svg width="19" height="18" viewBox="0 0 19 18" fill="none" xmlns="http://www.w3.org/2000/svg">
<path d="M7.98171 5.775C7.91223 5.84364 7.85707 5.92539 7.81942 6.01551C7.78177 6.10563 7.76238 6.20233 7.76238 6.3C7.76238 6.39767 7.78177 6.49437 7.81942 6.58449C7.85707 6.67461 7.91223 6.75636 7.98171 6.825L9.40671 8.25H2.50671C2.09421 8.25 1.75671 8.5875 1.75671 9C1.75671 9.4125 2.09421 9.75 2.50671 9.75H9.40671L7.98171 11.175C7.91223 11.2436 7.85707 11.3254 7.81942 11.4155C7.78177 11.5056 7.76238 11.6023 7.76238 11.7C7.76238 11.7977 7.78177 11.8944 7.81942 11.9845C7.85707 12.0746 7.91223 12.1564 7.98171 12.225C8.27421 12.5175 8.73921 12.5175 9.03171 12.225L11.7242 9.5325C11.7937 9.46311 11.8489 9.3807 11.8865 9.28997C11.9242 9.19924 11.9435 9.10198 11.9435 9.00375C11.9435 8.90552 11.9242 8.80826 11.8865 8.71753C11.8489 8.6268 11.7937 8.54439 11.7242 8.475L9.03171 5.775C8.96307 5.70552 8.88132 5.65036 8.7912 5.61271C8.70108 5.57506 8.60438 5.55567 8.50671 5.55567C8.40905 5.55567 8.31235 5.57506 8.22223 5.61271C8.13211 5.65036 8.05036 5.70552 7.98171 5.775ZM15.2567 14.25H10.0067C9.59421 14.25 9.25671 14.5875 9.25671 15C9.25671 15.4125 9.59421 15.75 10.0067 15.75H15.2567C16.0817 15.75 16.7567 15.075 16.7567 14.25V3.75C16.7567 2.925 16.0817 2.25 15.2567 2.25H10.0067C9.59421 2.25 9.25671 2.5875 9.25671 3C9.25671 3.4125 9.59421 3.75 10.0067 3.75H15.2567V14.25Z" fill="white"/>
</svg>
