<svg width="22" height="23" viewBox="0 0 22 23" fill="none" xmlns="http://www.w3.org/2000/svg">
<path d="M20.8144 16.7317L18.6779 14.5952C18.2913 14.2088 17.807 13.9345 17.2767 13.8017C16.7464 13.6689 16.19 13.6825 15.6669 13.8411C15.1437 13.9997 14.6734 14.2973 14.3061 14.7022C13.9388 15.107 13.6883 15.604 13.5813 16.1401C10.0582 15.4813 6.63172 12.0689 6.41844 9.01885C7.01737 8.90867 7.56858 8.61879 7.99877 8.18774C8.56518 7.62126 8.88338 6.85298 8.88338 6.05191C8.88338 5.25083 8.56518 4.48256 7.99877 3.91607L5.86294 1.77963C5.29645 1.21322 4.52818 0.89502 3.7271 0.89502C2.92603 0.89502 2.15776 1.21322 1.59127 1.77963C-4.81684 8.18774 14.4063 27.4109 20.8144 21.0027C21.3805 20.4362 21.6984 19.6681 21.6984 18.8672C21.6984 18.0663 21.3805 17.2982 20.8144 16.7317Z" fill="white"/>
</svg>
