<svg width="16" height="20" viewBox="0 0 16 20" fill="none" xmlns="http://www.w3.org/2000/svg">
<path d="M7.99994 10.0942C8.54994 10.0942 9.02094 9.89824 9.41294 9.50624C9.80427 9.1149 9.99994 8.64424 9.99994 8.09424C9.99994 7.54424 9.80427 7.07324 9.41294 6.68124C9.02094 6.2899 8.54994 6.09424 7.99994 6.09424C7.44994 6.09424 6.97927 6.2899 6.58794 6.68124C6.19594 7.07324 5.99994 7.54424 5.99994 8.09424C5.99994 8.64424 6.19594 9.1149 6.58794 9.50624C6.97927 9.89824 7.44994 10.0942 7.99994 10.0942ZM7.99994 19.7192C7.86661 19.7192 7.73327 19.6942 7.59994 19.6442C7.46661 19.5942 7.34994 19.5276 7.24994 19.4442C4.81661 17.2942 2.99994 15.2986 1.79994 13.4572C0.599939 11.6152 -6.10352e-05 9.89424 -6.10352e-05 8.29424C-6.10352e-05 5.79424 0.804272 3.80257 2.41294 2.31924C4.02094 0.835905 5.88327 0.0942383 7.99994 0.0942383C10.1166 0.0942383 11.9789 0.835905 13.5869 2.31924C15.1956 3.80257 15.9999 5.79424 15.9999 8.29424C15.9999 9.89424 15.3999 11.6152 14.1999 13.4572C12.9999 15.2986 11.1833 17.2942 8.74994 19.4442C8.64994 19.5276 8.53327 19.5942 8.39994 19.6442C8.26661 19.6942 8.13327 19.7192 7.99994 19.7192Z" fill="white"/>
</svg>
