<svg width="21" height="21" viewBox="0 0 21 21" fill="none" xmlns="http://www.w3.org/2000/svg">
<path d="M14.9122 2.85425C15.3983 2.8542 15.8767 2.97559 16.304 3.2074C16.7313 3.4392 17.094 3.77408 17.359 4.18162C17.624 4.58916 17.783 5.05644 17.8216 5.54104C17.8601 6.02564 17.777 6.51219 17.5798 6.95652C17.3826 7.40085 17.0775 7.78887 16.6923 8.08535C16.307 8.38183 15.8538 8.57737 15.3738 8.65422C14.8938 8.73107 14.4022 8.68679 13.9436 8.5254C13.485 8.36401 13.0741 8.09063 12.748 7.73008L8.94965 9.90008C9.12756 10.4679 9.12756 11.0765 8.94965 11.6442L12.7472 13.8159C13.23 13.2824 13.8929 12.9461 14.6086 12.8715C15.3243 12.797 16.0423 12.9895 16.6247 13.412C17.2071 13.8346 17.6129 14.4574 17.7641 15.1609C17.9153 15.8644 17.8013 16.599 17.4439 17.2235C17.0866 17.8481 16.5111 18.3186 15.8279 18.5447C15.1448 18.7708 14.4023 18.7365 13.7429 18.4485C13.0834 18.1605 12.5537 17.639 12.2553 16.9842C11.957 16.3294 11.911 15.5875 12.1263 14.9009L8.32882 12.7284C7.9333 13.1658 7.41457 13.473 6.84097 13.6097C6.26737 13.7464 5.66581 13.7062 5.11554 13.4943C4.56527 13.2823 4.09211 12.9087 3.75838 12.4226C3.42466 11.9364 3.24603 11.3606 3.24603 10.7709C3.24603 10.1812 3.42466 9.60541 3.75838 9.11927C4.09211 8.63313 4.56527 8.25949 5.11554 8.04757C5.66581 7.83564 6.26737 7.79539 6.84097 7.9321C7.41457 8.06881 7.9333 8.37607 8.32882 8.81342L12.1263 6.64342C11.9897 6.20644 11.9578 5.74345 12.0332 5.29187C12.1086 4.84029 12.2892 4.41279 12.5604 4.04392C12.8316 3.67505 13.1858 3.37516 13.5944 3.16849C14.0029 2.96182 14.4543 2.85418 14.9122 2.85425ZM14.9122 14.1042C14.4697 14.1042 14.0453 14.28 13.7325 14.5929C13.4196 14.9058 13.2438 15.3301 13.2438 15.7726C13.2438 16.2151 13.4196 16.6394 13.7325 16.9523C14.0453 17.2651 14.4697 17.4409 14.9122 17.4409C15.3546 17.4409 15.779 17.2651 16.0918 16.9523C16.4047 16.6394 16.5805 16.2151 16.5805 15.7726C16.5805 15.3301 16.4047 14.9058 16.0918 14.5929C15.779 14.28 15.3546 14.1042 14.9122 14.1042ZM6.16382 9.10425C5.72135 9.10425 5.297 9.28002 4.98413 9.59289C4.67126 9.90577 4.49549 10.3301 4.49549 10.7726C4.49549 11.2151 4.67126 11.6394 4.98413 11.9523C5.297 12.2651 5.72135 12.4409 6.16382 12.4409C6.60629 12.4409 7.03064 12.2651 7.34351 11.9523C7.65638 11.6394 7.83215 11.2151 7.83215 10.7726C7.83215 10.3301 7.65638 9.90577 7.34351 9.59289C7.03064 9.28002 6.60629 9.10425 6.16382 9.10425ZM14.9122 4.10425C14.4697 4.10425 14.0453 4.28002 13.7325 4.59289C13.4196 4.90576 13.2438 5.33011 13.2438 5.77258C13.2438 6.21505 13.4196 6.6394 13.7325 6.95227C14.0453 7.26514 14.4697 7.44092 14.9122 7.44092C15.3546 7.44092 15.779 7.26514 16.0918 6.95227C16.4047 6.6394 16.5805 6.21505 16.5805 5.77258C16.5805 5.33011 16.4047 4.90576 16.0918 4.59289C15.779 4.28002 15.3546 4.10425 14.9122 4.10425Z" fill="#666666"/>
</svg>
