<svg width="22" height="18" viewBox="0 0 22 18" fill="none" xmlns="http://www.w3.org/2000/svg">
<path d="M21.0043 2.62102C20.3438 2.91172 19.6495 3.11414 18.9384 3.22329C19.2708 3.16501 19.76 2.55302 19.9547 2.30531C20.2505 1.93166 20.476 1.50511 20.6196 1.04733C20.6196 1.01333 20.6528 0.964762 20.6196 0.940477C20.6028 0.931124 20.5841 0.926223 20.565 0.926223C20.5459 0.926223 20.5271 0.931124 20.5104 0.940477C19.7383 1.3681 18.9165 1.69448 18.0646 1.91189C18.0349 1.92116 18.0033 1.922 17.9732 1.9143C17.943 1.90659 17.9155 1.89065 17.8936 1.86817C17.8273 1.78742 17.7559 1.71116 17.6799 1.63989C17.3324 1.32149 16.9382 1.06089 16.5116 0.867621C15.9358 0.62602 15.3138 0.521388 14.6927 0.561626C14.09 0.600555 13.5016 0.765884 12.964 1.04733C12.4347 1.34406 11.9694 1.74717 11.5963 2.23245C11.2037 2.73193 10.9204 3.31158 10.7652 3.93242C10.6372 4.52297 10.6227 5.13332 10.7224 5.72953C10.7224 5.83153 10.7224 5.8461 10.6369 5.83153C7.25083 5.32154 4.47259 4.0927 2.20251 1.45532C2.10278 1.33875 2.05054 1.33875 1.96981 1.45532C0.981991 2.99015 1.46165 5.41868 2.69642 6.61837C2.86264 6.77866 3.03361 6.93408 3.21408 7.07979C2.64794 7.03869 2.09563 6.88178 1.58988 6.61837C1.4949 6.55523 1.44266 6.58923 1.43791 6.7058C1.42444 6.86741 1.42444 7.0299 1.43791 7.1915C1.537 7.96601 1.83544 8.6997 2.30272 9.31755C2.77 9.9354 3.38934 10.4152 4.09741 10.708C4.27002 10.7836 4.44988 10.8406 4.63406 10.878C4.10996 10.9835 3.57243 10.9999 3.04311 10.9266C2.92913 10.9023 2.88639 10.9654 2.92913 11.0771C3.62725 13.02 5.14222 13.6125 6.25351 13.9428C6.40548 13.9671 6.55746 13.9671 6.72842 14.006C6.72842 14.006 6.72842 14.006 6.69993 14.0351C6.37224 14.6471 5.04724 15.0599 4.43935 15.2736C3.3298 15.6812 2.14681 15.837 0.972493 15.7302C0.787277 15.7011 0.744535 15.7059 0.697044 15.7302C0.649553 15.7545 0.697044 15.8079 0.749285 15.8565C0.98674 16.0168 1.2242 16.1576 1.47115 16.2936C2.20634 16.7037 2.98357 17.0295 3.78872 17.265C7.95845 18.4404 12.6506 17.5759 15.7802 14.3945C18.2403 11.898 19.1046 8.45434 19.1046 5.00583C19.1046 4.87469 19.2613 4.79698 19.3516 4.72898C19.974 4.23302 20.5227 3.64731 20.9805 2.99015C21.0598 2.8922 21.1005 2.76747 21.0945 2.64045C21.0945 2.56759 21.0945 2.58216 21.0043 2.62102Z" fill="#33CCFF"/>
</svg>
